<?xml version="1.0" encoding="UTF-8"?>
<svg width="1200pt" height="1200pt" version="1.1" viewBox="0 0 1200 1200" xmlns="http://www.w3.org/2000/svg">
 <path d="m1012.5 37.5h-825c-62.109 0.046875-112.45 50.391-112.5 112.5v900c0.046875 62.109 50.391 112.45 112.5 112.5h825c62.109-0.046875 112.45-50.391 112.5-112.5v-900c-0.046875-62.109-50.391-112.45-112.5-112.5zm-825 1050c-20.719-0.046875-37.453-16.781-37.5-37.5v-900c0.046875-20.719 16.781-37.453 37.5-37.5h262.5v975zm862.5-37.5c-0.046875 20.719-16.781 37.453-37.5 37.5h-487.5v-975h487.5c20.719 0.046875 37.453 16.781 37.5 37.5zm-657.19-556.08-106.08 106.08 106.08 106.08c14.625 14.625 14.625 38.391 0 53.016-14.672 14.672-38.391 14.672-53.062 0l-132.56-132.56c-7.0312-7.0312-10.969-16.594-10.969-26.531s3.9375-19.5 10.969-26.531l132.56-132.61v0.046875c14.672-14.672 38.391-14.672 53.062 0 14.625 14.625 14.625 38.391 0 53.016z"/>
</svg>
